<svg xmlns="http://www.w3.org/2000/svg" width="375" viewBox="0 0 375 375" height="375" version="1.0"><defs><clipPath id="a"><path d="M 158.039062 163.609375 L 248 163.609375 L 248 256.875 L 158.039062 256.875 Z M 158.039062 163.609375"/></clipPath><clipPath id="b"><path d="M 115.832031 118.40625 L 142.621094 118.40625 L 142.621094 152.140625 L 115.832031 152.140625 Z M 115.832031 118.40625"/></clipPath><clipPath id="c"><path d="M 161.980469 175.53125 L 183.808594 175.53125 L 183.808594 203.3125 L 161.980469 203.3125 Z M 161.980469 175.53125"/></clipPath><clipPath id="d"><path d="M 198.046875 158.523438 L 219.875 158.523438 L 219.875 186.304688 L 198.046875 186.304688 Z M 198.046875 158.523438"/></clipPath><clipPath id="e"><path d="M 250.25 125.191406 L 272.078125 125.191406 L 272.078125 152.972656 L 250.25 152.972656 Z M 250.25 125.191406"/></clipPath></defs><path fill="#FFF" d="M 187.488281 29.988281 C 100.5 29.988281 29.988281 100.5 29.988281 187.488281 C 29.988281 274.472656 100.5 344.988281 187.488281 344.988281 C 274.472656 344.988281 344.988281 274.472656 344.988281 187.488281 C 344.988281 100.5 274.472656 29.988281 187.488281 29.988281"/><g clip-path="url(#a)"><path d="M 155.332031 258.988281 L 247.890625 258.988281 L 247.890625 262.691406 L 151.628906 262.691406 L 151.628906 162.726562 L 155.332031 162.726562 Z M 165.746094 240.1875 L 162.429688 238.570312 L 174.460938 211.628906 L 190.988281 218.515625 L 208.03125 191.113281 L 226.890625 201.234375 L 243.109375 180.621094 L 245.964844 182.976562 L 227.894531 205.980469 L 209.34375 196.011719 L 192.414062 223.121094 L 176.332031 216.394531 Z M 165.746094 240.1875" fill-rule="evenodd"/></g><path stroke-linecap="round" transform="matrix(2.48645 -3.0947 3.30011 2.65148 227.418 203.928)" fill="none" d="M 0.500085 -0.00048213 L 11.248405 -0.0000443354" stroke="#000"/><path stroke-linecap="round" transform="matrix(2.48645 -3.0947 3.30011 2.65148 262.845 159.834)" stroke-linejoin="round" d="M -2.499812 -1.499888 L -0.500244 0.0000785366 L -2.499853 1.499566 Z M -2.499812 -1.499888" stroke="#000"/><path stroke-linecap="round" transform="matrix(-1.39903 -3.71675 3.19799 -1.20376 163.201 242.055)" fill="none" d="M 0.500043 0.000628642 L 23.487243 0.000530167" stroke="#000"/><path stroke-linecap="round" transform="matrix(1.39174 -3.72036 3.20043 1.19724 104.641 221.339)" fill="none" d="M 0.499499 -0.0000619471 L 17.735748 -0.0000713518" stroke="#000"/><g clip-path="url(#b)"><path fill="#FF1616" d="M 142.574219 135.273438 C 142.582031 135.269531 142.589844 135.261719 142.597656 135.257812 L 142.546875 135.257812 C 134.542969 131.160156 129.253906 118.496094 129.253906 118.496094 C 129.253906 118.496094 123.65625 130.789062 115.871094 135.257812 L 115.824219 135.257812 C 115.832031 135.261719 115.839844 135.269531 115.847656 135.273438 C 115.839844 135.277344 115.832031 135.28125 115.824219 135.285156 L 115.871094 135.285156 C 123.65625 139.753906 129.253906 152.046875 129.253906 152.046875 C 129.253906 152.046875 134.542969 139.386719 142.546875 135.285156 L 142.597656 135.285156 C 142.589844 135.28125 142.582031 135.277344 142.574219 135.273438 Z M 142.574219 135.273438"/></g><g clip-path="url(#c)"><path fill="#008037" d="M 183.769531 189.421875 C 183.777344 189.417969 183.78125 189.414062 183.789062 189.410156 L 183.75 189.410156 C 177.222656 186.035156 172.914062 175.605469 172.914062 175.605469 C 172.914062 175.605469 168.355469 185.730469 162.011719 189.410156 L 161.972656 189.410156 C 161.980469 189.414062 161.984375 189.417969 161.992188 189.421875 C 161.984375 189.425781 161.980469 189.429688 161.972656 189.433594 L 162.011719 189.433594 C 168.355469 193.113281 172.914062 203.238281 172.914062 203.238281 C 172.914062 203.238281 177.222656 192.808594 183.75 189.433594 L 183.789062 189.433594 C 183.78125 189.429688 183.777344 189.425781 183.769531 189.421875 Z M 183.769531 189.421875"/></g><g clip-path="url(#d)"><path fill="#FFDE59" d="M 219.832031 172.414062 C 219.839844 172.410156 219.847656 172.40625 219.855469 172.402344 L 219.8125 172.402344 C 213.289062 169.027344 208.980469 158.597656 208.980469 158.597656 C 208.980469 158.597656 204.417969 168.722656 198.074219 172.402344 L 198.039062 172.402344 C 198.046875 172.40625 198.050781 172.410156 198.058594 172.414062 C 198.050781 172.417969 198.046875 172.421875 198.039062 172.425781 L 198.074219 172.425781 C 204.417969 176.109375 208.980469 186.230469 208.980469 186.230469 C 208.980469 186.230469 213.289062 175.804688 219.8125 172.425781 L 219.855469 172.425781 C 219.847656 172.421875 219.839844 172.417969 219.832031 172.414062 Z M 219.832031 172.414062"/></g><g clip-path="url(#e)"><path fill="#004AAD" d="M 272.035156 139.082031 C 272.042969 139.078125 272.050781 139.074219 272.058594 139.070312 L 272.015625 139.070312 C 265.492188 135.691406 261.183594 125.265625 261.183594 125.265625 C 261.183594 125.265625 256.621094 135.386719 250.277344 139.070312 L 250.242188 139.070312 C 250.25 139.074219 250.253906 139.078125 250.261719 139.082031 C 250.253906 139.085938 250.25 139.089844 250.242188 139.09375 L 250.277344 139.09375 C 256.621094 142.773438 261.183594 152.898438 261.183594 152.898438 C 261.183594 152.898438 265.492188 142.46875 272.015625 139.09375 L 272.058594 139.09375 C 272.050781 139.089844 272.042969 139.085938 272.035156 139.082031 Z M 272.035156 139.082031"/></g></svg>