<svg xmlns="http://www.w3.org/2000/svg" width="810" viewBox="0 0 810 810" height="810" version="1.0"><defs><clipPath id="a"><path d="M 349.589844 319.265625 L 545 319.265625 L 545 520.265625 L 349.589844 520.265625 Z M 349.589844 319.265625"/></clipPath><clipPath id="b"><path d="M 258.429688 221.628906 L 315.429688 221.628906 L 315.429688 295 L 258.429688 295 Z M 258.429688 221.628906"/></clipPath><clipPath id="c"><path d="M 358.105469 345.019531 L 405.355469 345.019531 L 405.355469 405 L 358.105469 405 Z M 358.105469 345.019531"/></clipPath><clipPath id="d"><path d="M 436.007812 308.285156 L 483.257812 308.285156 L 483.257812 368.285156 L 436.007812 368.285156 Z M 436.007812 308.285156"/></clipPath><clipPath id="e"><path d="M 548.765625 236.285156 L 596 236.285156 L 596 296.285156 L 548.765625 296.285156 Z M 548.765625 236.285156"/></clipPath></defs><path fill="#FFF" d="M-81 -81H891V891H-81z"/><path fill="#FFF" d="M-81 -81H891V891H-81z"/><path fill="#FFF" d="M-81 -81H891V891H-81z"/><g clip-path="url(#a)"><path d="M 343.804688 526.289062 L 544.695312 526.289062 L 544.695312 534.324219 L 335.769531 534.324219 L 335.769531 317.363281 L 343.804688 317.363281 Z M 366.40625 485.484375 L 359.207031 481.96875 L 385.320312 423.5 L 421.191406 438.441406 L 458.1875 378.96875 L 499.121094 400.941406 L 534.316406 356.199219 L 540.511719 361.308594 L 501.296875 411.238281 L 461.035156 389.597656 L 424.285156 448.445312 L 389.382812 433.835938 Z M 366.40625 485.484375" fill-rule="evenodd"/></g><path stroke-linecap="round" transform="matrix(5.17222 -6.4375 6.60008 5.30284 499.188 406.148)" fill="none" d="M 0.499954 -0.00000802161 L 11.805149 -0.0000472914" stroke="#000"/><path stroke-linecap="round" transform="matrix(5.17222 -6.4375 6.60008 5.30284 575.762 310.841)" stroke-linejoin="round" d="M -2.500091 -1.500182 L -0.499866 -0.000124293 L -2.500203 1.49999 Z M -2.500091 -1.500182" stroke="#000"/><path stroke-linecap="round" transform="matrix(-2.64046 -7.0148 7.0412 -2.6504 360.82 488.702)" fill="none" d="M 0.499971 -0.0000787013 L 26.917316 -0.0000600811" stroke="#000"/><path stroke-linecap="round" transform="matrix(2.62248 -7.01036 7.0466 2.63604 234.315 443.994)" fill="none" d="M 0.49995 -0.000199975 L 20.343363 -0.000189146" stroke="#000"/><g clip-path="url(#b)"><path fill="#FF1616" d="M 315.324219 258.378906 C 315.339844 258.367188 315.359375 258.355469 315.375 258.347656 L 315.269531 258.347656 C 298.234375 249.414062 286.980469 221.816406 286.980469 221.816406 C 286.980469 221.816406 275.070312 248.605469 258.507812 258.347656 L 258.410156 258.347656 C 258.425781 258.355469 258.441406 258.367188 258.457031 258.378906 C 258.441406 258.386719 258.425781 258.398438 258.410156 258.40625 L 258.507812 258.40625 C 275.070312 268.148438 286.984375 294.9375 286.984375 294.9375 C 286.984375 294.9375 298.234375 267.34375 315.269531 258.40625 L 315.378906 258.40625 C 315.359375 258.398438 315.339844 258.386719 315.324219 258.378906 Z M 315.324219 258.378906"/></g><g clip-path="url(#c)"><path fill="#008037" d="M 405.269531 375.019531 C 405.285156 375.011719 405.296875 375.003906 405.3125 374.996094 L 405.222656 374.996094 C 391.101562 367.703125 381.777344 345.175781 381.777344 345.175781 C 381.777344 345.175781 371.902344 367.042969 358.171875 374.996094 L 358.089844 374.996094 C 358.105469 375.003906 358.117188 375.011719 358.132812 375.019531 C 358.117188 375.027344 358.105469 375.035156 358.089844 375.042969 L 358.171875 375.042969 C 371.902344 382.996094 381.777344 404.863281 381.777344 404.863281 C 381.777344 404.863281 391.101562 382.339844 405.226562 375.042969 L 405.3125 375.042969 C 405.296875 375.035156 405.285156 375.027344 405.269531 375.019531 Z M 405.269531 375.019531"/></g><g clip-path="url(#d)"><path fill="#FFDE59" d="M 483.167969 338.285156 C 483.183594 338.277344 483.199219 338.269531 483.214844 338.261719 L 483.125 338.261719 C 469.003906 330.96875 459.675781 308.445312 459.675781 308.445312 C 459.675781 308.445312 449.800781 330.308594 436.070312 338.261719 L 435.992188 338.261719 C 436.003906 338.269531 436.019531 338.277344 436.03125 338.285156 C 436.019531 338.292969 436.003906 338.304688 435.992188 338.308594 L 436.070312 338.308594 C 449.800781 346.261719 459.675781 368.128906 459.675781 368.128906 C 459.675781 368.128906 469.003906 345.605469 483.125 338.308594 L 483.214844 338.308594 C 483.199219 338.304688 483.183594 338.292969 483.167969 338.285156 Z M 483.167969 338.285156"/></g><g clip-path="url(#e)"><path fill="#004AAD" d="M 595.929688 266.285156 C 595.945312 266.277344 595.957031 266.265625 595.972656 266.257812 L 595.882812 266.257812 C 581.761719 258.964844 572.4375 236.441406 572.4375 236.441406 C 572.4375 236.441406 562.5625 258.308594 548.832031 266.257812 L 548.75 266.257812 C 548.765625 266.265625 548.777344 266.277344 548.792969 266.285156 C 548.777344 266.292969 548.765625 266.300781 548.75 266.308594 L 548.832031 266.308594 C 562.5625 274.257812 572.4375 296.125 572.4375 296.125 C 572.4375 296.125 581.761719 273.601562 595.886719 266.308594 L 595.972656 266.308594 C 595.957031 266.300781 595.945312 266.292969 595.929688 266.285156 Z M 595.929688 266.285156"/></g></svg>